<svg width="66" height="55" viewBox="0 0 66 55" fill="none" xmlns="http://www.w3.org/2000/svg">
<path d="M3.496 43V37.48C3.496 36.1307 3.68 34.9807 4.048 34.03C4.44667 33.0793 5.12133 32.2207 6.072 31.454C7.02267 30.6567 8.31067 29.89 9.936 29.154L16.238 26.256C17.7713 25.5507 18.9827 24.646 19.872 23.542C20.7613 22.4073 21.206 20.9507 21.206 19.172C21.206 17.0253 20.608 15.354 19.412 14.158C18.216 12.962 16.5293 12.364 14.352 12.364C12.2053 12.364 10.5187 12.962 9.292 14.158C8.06533 15.354 7.452 17.0253 7.452 19.172H3.128C3.128 17.24 3.52667 15.4613 4.324 13.836C5.152 12.2107 6.394 10.9227 8.05 9.972C9.706 8.99066 11.8067 8.5 14.352 8.5C16.8973 8.5 18.9827 8.99066 20.608 9.972C22.264 10.9227 23.4907 12.18 24.288 13.744C25.116 15.308 25.53 17.01 25.53 18.85V19.494C25.53 21.9167 24.8247 23.956 23.414 25.612C22.034 27.268 20.1633 28.6327 17.802 29.706L11.5 32.604C10.0893 33.248 9.13867 33.892 8.648 34.536C8.15733 35.18 7.912 36.0387 7.912 37.112V41.344L6.716 39.228H25.944V43H3.496Z" fill="black"/>
<path d="M39.492 34.932V36.432H35.892V43.5H34.08V34.932H39.492ZM48.1082 39.204C48.1082 39.868 48.0242 40.472 47.8562 41.016C47.6962 41.552 47.4482 42.016 47.1122 42.408C46.7842 42.8 46.3602 43.1 45.8402 43.308C45.3282 43.516 44.7242 43.62 44.0282 43.62C43.3322 43.62 42.7242 43.516 42.2042 43.308C41.6922 43.092 41.2682 42.792 40.9322 42.408C40.6042 42.016 40.3562 41.548 40.1882 41.004C40.0282 40.46 39.9482 39.856 39.9482 39.192C39.9482 38.304 40.0922 37.532 40.3802 36.876C40.6762 36.22 41.1242 35.712 41.7242 35.352C42.3322 34.984 43.1042 34.8 44.0402 34.8C44.9682 34.8 45.7322 34.984 46.3322 35.352C46.9322 35.712 47.3762 36.224 47.6642 36.888C47.9602 37.544 48.1082 38.316 48.1082 39.204ZM41.8562 39.204C41.8562 39.804 41.9322 40.32 42.0842 40.752C42.2362 41.184 42.4722 41.516 42.7922 41.748C43.1122 41.98 43.5242 42.096 44.0282 42.096C44.5482 42.096 44.9642 41.98 45.2762 41.748C45.5962 41.516 45.8282 41.184 45.9722 40.752C46.1242 40.32 46.2002 39.804 46.2002 39.204C46.2002 38.3 46.0322 37.592 45.6962 37.08C45.3602 36.568 44.8082 36.312 44.0402 36.312C43.5282 36.312 43.1122 36.428 42.7922 36.66C42.4722 36.892 42.2362 37.224 42.0842 37.656C41.9322 38.088 41.8562 38.604 41.8562 39.204ZM56.1166 34.932V41.988H57.2566V45.996H55.5046V43.5H50.1406V45.996H48.3886V41.988H49.0486C49.2726 41.54 49.4886 41.068 49.6966 40.572C49.9046 40.076 50.0966 39.544 50.2726 38.976C50.4566 38.408 50.6206 37.792 50.7646 37.128C50.9086 36.456 51.0286 35.724 51.1246 34.932H56.1166ZM52.5646 36.444C52.5086 36.86 52.4286 37.304 52.3246 37.776C52.2206 38.24 52.0966 38.716 51.9526 39.204C51.8166 39.692 51.6646 40.172 51.4966 40.644C51.3286 41.116 51.1486 41.564 50.9566 41.988H54.3046V36.444H52.5646ZM63.5767 43.5L62.9527 41.46H59.8327L59.2087 43.5H57.2527L60.2767 34.896H62.4967L65.5327 43.5H63.5767ZM61.8967 37.944C61.8567 37.808 61.8047 37.636 61.7407 37.428C61.6767 37.22 61.6127 37.008 61.5487 36.792C61.4847 36.576 61.4327 36.388 61.3927 36.228C61.3527 36.388 61.2967 36.588 61.2247 36.828C61.1607 37.06 61.0967 37.284 61.0327 37.5C60.9767 37.708 60.9327 37.856 60.9007 37.944L60.2887 39.936H62.5207L61.8967 37.944Z" fill="black"/>
</svg>
