<svg width="24" height="24" viewBox="0 0 24 24" fill="none" xmlns="http://www.w3.org/2000/svg">
<path d="M19.07 11C18.3 11 17.97 10.73 17.89 10.02C17.66 7.95 17.02 6.08 15.89 4.58L15.64 4.8C17.58 5.87 18.94 7.53 19.58 9.44C19.89 10.36 20.19 10.66 21.08 10.88V11H19.07ZM13 11V4.28C14.52 5.13 15.48 7.45 15.79 9.48C15.93 10.39 16.18 10.7 17.09 10.88V11H13ZM15.89 19.42C17.02 17.92 17.66 16.05 17.89 13.98C17.97 13.27 18.3 13 19.07 13H21.08V13.12C20.19 13.34 19.89 13.64 19.58 14.56C18.94 16.47 17.58 18.13 15.64 19.2L15.89 19.42ZM6.91 11V10.88C7.82 10.7 8.07 10.39 8.21 9.48C8.55 7.45 9.48 5.13 11 4.28V11H6.91ZM13 19.72V13H17.09V13.12C16.18 13.3 15.93 13.61 15.79 14.52C15.48 16.55 14.52 18.87 13 19.72ZM2.92 11V10.88C3.81 10.66 4.11 10.36 4.42 9.44C5.06 7.53 6.42 5.87 8.36 4.8L8.11 4.58C6.98 6.08 6.35 7.95 6.11 10.02C6.03 10.73 5.7 11 4.93 11H2.92ZM11 19.72C9.48 18.87 8.52 16.55 8.21 14.52C8.07 13.61 7.82 13.3 6.91 13.12V13H11V19.72ZM8.11 19.42L8.36 19.2C6.42 18.13 5.06 16.47 4.42 14.56C4.11 13.64 3.81 13.34 2.92 13.12V13H4.93C5.7 13 6.03 13.27 6.11 13.98C6.34 16.05 6.98 17.92 8.11 19.42ZM12 22C17.52 22 22 17.53 22 12C22 6.48 17.52 2 12 2C6.48 2 2 6.48 2 12C2 17.53 6.48 22 12 22Z" fill="#4A7BF7"/>
</svg>
