<svg width="40" height="40" viewBox="0 0 40 40" fill="none" xmlns="http://www.w3.org/2000/svg">
<path d="M10 12C10 10.8954 10.8954 10 12 10H22C23.1046 10 24 10.8954 24 12V16H22V12L12 12V30C10.8954 30 10 29.1046 10 28V12Z" fill="#4A7BF7"/>
<path d="M19 25C18.4477 25 18 24.5523 18 24C18 23.4477 18.4477 23 19 23C19.5523 23 20 23.4477 20 24C20 24.5523 19.5523 25 19 25Z" fill="#4A7BF7"/>
<path fill-rule="evenodd" clip-rule="evenodd" d="M28 18C29.1046 18 30 18.8954 30 20V28C30 29.1046 29.1046 30 28 30H16C14.8954 30 14 29.1046 14 28L14 20C14 18.8954 14.8954 18 16 18L28 18ZM16 20L16 28H28V20H16Z" fill="#4A7BF7"/>
</svg>
