<svg width="67" height="55" viewBox="0 0 67 55" fill="none" xmlns="http://www.w3.org/2000/svg">
<path d="M2.208 35.042V29.614L16.146 8.592L19.228 11.03L6.21 30.718L6.624 31.546H28.336V35.042H2.208ZM19.734 43V19.218H23.874V43H19.734Z" fill="black"/>
<path d="M40.492 34.932V36.432H36.892V43.5H35.08V34.932H40.492ZM49.1082 39.204C49.1082 39.868 49.0242 40.472 48.8562 41.016C48.6962 41.552 48.4482 42.016 48.1122 42.408C47.7842 42.8 47.3602 43.1 46.8402 43.308C46.3282 43.516 45.7242 43.62 45.0282 43.62C44.3322 43.62 43.7242 43.516 43.2042 43.308C42.6922 43.092 42.2682 42.792 41.9322 42.408C41.6042 42.016 41.3562 41.548 41.1882 41.004C41.0282 40.46 40.9482 39.856 40.9482 39.192C40.9482 38.304 41.0922 37.532 41.3802 36.876C41.6762 36.22 42.1242 35.712 42.7242 35.352C43.3322 34.984 44.1042 34.8 45.0402 34.8C45.9682 34.8 46.7322 34.984 47.3322 35.352C47.9322 35.712 48.3762 36.224 48.6642 36.888C48.9602 37.544 49.1082 38.316 49.1082 39.204ZM42.8562 39.204C42.8562 39.804 42.9322 40.32 43.0842 40.752C43.2362 41.184 43.4722 41.516 43.7922 41.748C44.1122 41.98 44.5242 42.096 45.0282 42.096C45.5482 42.096 45.9642 41.98 46.2762 41.748C46.5962 41.516 46.8282 41.184 46.9722 40.752C47.1242 40.32 47.2002 39.804 47.2002 39.204C47.2002 38.3 47.0322 37.592 46.6962 37.08C46.3602 36.568 45.8082 36.312 45.0402 36.312C44.5282 36.312 44.1122 36.428 43.7922 36.66C43.4722 36.892 43.2362 37.224 43.0842 37.656C42.9322 38.088 42.8562 38.604 42.8562 39.204ZM57.1166 34.932V41.988H58.2566V45.996H56.5046V43.5H51.1406V45.996H49.3886V41.988H50.0486C50.2726 41.54 50.4886 41.068 50.6966 40.572C50.9046 40.076 51.0966 39.544 51.2726 38.976C51.4566 38.408 51.6206 37.792 51.7646 37.128C51.9086 36.456 52.0286 35.724 52.1246 34.932H57.1166ZM53.5646 36.444C53.5086 36.86 53.4286 37.304 53.3246 37.776C53.2206 38.24 53.0966 38.716 52.9526 39.204C52.8166 39.692 52.6646 40.172 52.4966 40.644C52.3286 41.116 52.1486 41.564 51.9566 41.988H55.3046V36.444H53.5646ZM64.5767 43.5L63.9527 41.46H60.8327L60.2087 43.5H58.2527L61.2767 34.896H63.4967L66.5327 43.5H64.5767ZM62.8967 37.944C62.8567 37.808 62.8047 37.636 62.7407 37.428C62.6767 37.22 62.6127 37.008 62.5487 36.792C62.4847 36.576 62.4327 36.388 62.3927 36.228C62.3527 36.388 62.2967 36.588 62.2247 36.828C62.1607 37.06 62.0967 37.284 62.0327 37.5C61.9767 37.708 61.9327 37.856 61.9007 37.944L61.2887 39.936H63.5207L62.8967 37.944Z" fill="black"/>
</svg>
