<svg width="24" height="24" viewBox="0 0 24 24" fill="none" xmlns="http://www.w3.org/2000/svg">
<path d="M14 15H10V17H14V15Z" fill="#4A7BF7"/>
<path d="M18 6V4.62C18.31 4.34 18.5 3.94 18.5 3.5C18.5 2.67 17.83 2 17 2C16.17 2 15.5 2.67 15.5 3.5C15.5 3.94 15.69 4.34 16 4.62V6H8V4.62C8.31 4.34 8.5 3.94 8.5 3.5C8.5 2.67 7.83 2 7 2C6.17 2 5.5 2.67 5.5 3.5C5.5 3.94 5.7 4.34 6 4.62V6C4.35 6 3 7.34 3 9V17C3 18.31 3.84 19.42 5 19.83V22H7V20H17V22H19V19.83C20.17 19.42 21 18.31 21 17V9C21 7.34 19.66 6 18 6ZM19 16V17C19 17.55 18.55 18 18 18H6C5.45 18 5 17.55 5 17V16C5 14.99 4.77 14.35 4.25 13.47L4.37 13.41C4.88 14.35 5.86 15 7 15C8.65 15 10 13.65 10 12C10 10.35 8.65 9 7 9C6.23 9 5.53 9.3 5 9.78V9C5 8.47 5.45 8 6 8H18C18.55 8 19 8.47 19 9V9.78C18.47 9.3 17.77 9 17 9C15.35 9 14 10.35 14 12C14 13.65 15.35 15 17 15C18.14 15 19.12 14.35 19.63 13.41L19.75 13.47C19.23 14.35 19 14.99 19 16ZM6 12C6 11.45 6.45 11 7 11C7.55 11 8 11.45 8 12C8 12.55 7.55 13 7 13C6.45 13 6 12.55 6 12ZM18 12C18 12.55 17.55 13 17 13C16.45 13 16 12.55 16 12C16 11.45 16.45 11 17 11C17.55 11 18 11.45 18 12Z" fill="#4A7BF7"/>
</svg>
