<svg width="40" height="40" viewBox="0 0 40 40" fill="none" xmlns="http://www.w3.org/2000/svg">
<path d="M29.9 17C29.72 16.1 29.28 15.29 28.68 14.64L28.78 14.54C29.21 14.88 29.58 14.83 29.95 14.46L30.66 13.76L29.24 12.34L27.75 13.83C27.02 13.35 26.15 13.06 25.22 13.02V12.88C25.77 12.82 26 12.52 26 12V11H24V13.1C23.09 13.28 22.29 13.72 21.64 14.32L21.54 14.22C21.88 13.79 21.83 13.42 21.46 13.05L20.76 12.34L19.34 13.76L20.83 15.25C20.35 15.98 20.07 16.85 20.03 17.78H19.89C19.82 17.23 19.52 17 19 17H18V19H20.1C20.55 21.22 22.45 22.88 24.78 22.98V23.12C24.23 23.18 24 23.48 24 24V25H26V22.9C26.9 22.72 27.71 22.28 28.36 21.68L28.46 21.78C28.12 22.21 28.17 22.58 28.54 22.95L29.24 23.66L30.66 22.24L29.17 20.75C29.65 20.02 29.94 19.15 29.98 18.22H30.12C30.18 18.77 30.48 19 31 19H32V17H29.9ZM25 21C23.35 21 22 19.66 22 18C22 16.34 23.35 15 25 15C26.66 15 28 16.34 28 18C28 19.66 26.66 21 25 21Z" fill="#4A7BF7"/>
<path d="M15.22 18.02V17.88C15.77 17.82 16 17.52 16 17V16H14V18.1C13.1 18.28 12.29 18.72 11.64 19.32L11.54 19.22C11.88 18.79 11.83 18.42 11.46 18.05L10.76 17.34L9.34 18.76L10.83 20.25C10.35 20.98 10.06 21.85 10.02 22.78H9.88C9.82 22.23 9.52 22 9 22H8V24H10.1C10.28 24.9 10.72 25.71 11.32 26.36L11.22 26.46C10.79 26.12 10.42 26.17 10.05 26.54L9.34 27.24L10.76 28.66L12.25 27.17C12.98 27.65 13.85 27.94 14.78 27.98V28.12C14.23 28.18 14 28.48 14 29V30H16V27.9C16.91 27.72 17.71 27.28 18.36 26.68L18.46 26.78C18.12 27.21 18.17 27.58 18.54 27.95L19.24 28.66L20.66 27.24L19.17 25.75C19.65 25.02 19.93 24.15 19.97 23.22H20.11C20.18 23.77 20.48 24 21 24H22V22H19.9C19.45 19.78 17.55 18.12 15.22 18.02ZM15 26C13.34 26 12 24.66 12 23C12 21.34 13.34 20 15 20C16.65 20 18 21.34 18 23C18 24.66 16.65 26 15 26Z" fill="#4A7BF7"/>
</svg>
