<svg width="24" height="24" viewBox="0 0 24 24" fill="none" xmlns="http://www.w3.org/2000/svg">
<path d="M16 11H21C21.6 11 22 10.6 22 10V5C22 4.4 21.6 4 21 4H16C15.4 4 15 4.4 15 5V6.3C14.9 7.3 14.1 8 13 8H11V7C11 6.4 10.6 6 10 6H3C2.4 6 2 6.4 2 7V17C2 17.6 2.4 18 3 18H10C10.6 18 11 17.6 11 17V16H13C14.1 16 14.8 16.7 15 17.7V19C15 19.6 15.4 20 16 20H21C21.6 20 22 19.6 22 19V14C22 13.4 21.6 13 21 13H16C15.4 13 15 13.4 15 14V15.2H14.85C14.55 14.5 13.9 14 13.1 14H11V10H13C13.9 10 14.65 9.5 14.85 8.8H15V10C15 10.6 15.5 11 16 11ZM17 6H20V9H17V6ZM9 16H4V8H9V16ZM17 15H20V18H17V15Z" fill="#4A7BF7"/>
</svg>
