<svg width="24" height="24" viewBox="0 0 24 24" fill="none" xmlns="http://www.w3.org/2000/svg">
<path d="M15 13H18V11H15V13ZM16 17H18V15H16V17ZM12 13H14V11H12V13ZM4 19V11C4 10.1 3.4 9.4 2.7 9.1V9H20V17C20 17.9 20.6 18.6 21.3 18.9V19H4ZM9 13H11V11H9V13ZM9 17H15V15H9V17ZM6 13H8V11H6V13ZM6 17H8V15H6V17ZM3 21H21C21.6 21 22 20.5 22 20V8C22 7.4 21.6 7 21 7H8V6C8 5.4 8.4 5 9 5H10C11.7 5 13 3.7 13 2V1H11V2C11 2.5 10.6 3 10 3H9C7.3 3 6 4.3 6 6V7H3C2.4 7 2 7.4 2 8V20C2 20.5 2.4 21 3 21Z" fill="#4A7BF7"/>
</svg>
