<svg width="40" height="40" viewBox="0 0 40 40" fill="none" xmlns="http://www.w3.org/2000/svg">
<path d="M13 30.21H25V28.21H18.5H13V30.21Z" fill="#4A7BF7"/>
<path d="M25.71 12.5L24.92 11.71L26.21 10.42L24.79 9L23.5 10.3L22.71 9.5C22.32 9.11 21.68 9.11 21.29 9.5L13.29 17.5C12.9 17.89 12.9 18.53 13.29 18.92L16.29 21.92C16.68 22.31 17.32 22.31 17.71 21.92L23.46 16.17L23.54 16.26C23.14 16.79 23.02 17.47 23.38 18.18C23.78 18.94 24 19.8 24 20.71C24 23.75 21.54 26.21 18.5 26.21C17.78 26.21 17.08 26.07 16.45 25.82C15.59 25.47 15.04 25.33 13.8 25.33V25.21H18V23.21H10V25.21H12.51C13.88 27.03 16.05 28.21 18.5 28.21C22.64 28.21 26 24.85 26 20.71C26 18.75 25.23 16.96 24 15.63L25.71 13.92C26.1 13.53 26.1 12.89 25.71 12.5ZM17 19.8L15.42 18.21L22 11.62L23.59 13.21L17 19.8Z" fill="#4A7BF7"/>
</svg>
