<svg width="40" height="40" viewBox="0 0 40 40" fill="none" xmlns="http://www.w3.org/2000/svg">
<path d="M19.8997 11.666H20.0997C20.3663 7.93268 22.0497 6.66602 25.3997 6.66602H34.9997C35.9163 6.66602 36.6663 7.41602 36.6663 8.33268V29.9993C36.6663 31.9327 35.2663 33.3327 33.333 33.3327H6.66634C4.76634 33.3327 3.34967 31.916 3.33301 29.9993V8.33268C3.33301 7.41602 4.08301 6.66602 4.99967 6.66602H14.6163C17.9497 6.66602 19.633 7.93268 19.8997 11.666ZM21.6663 29.9993H33.333V9.99935H25.3997C22.9497 9.99935 21.6663 11.1494 21.6663 13.816V29.9993ZM18.333 13.816C18.333 11.1494 17.0497 9.99935 14.6163 9.99935H6.66634V29.9993H18.333V13.816Z" fill="#4A7BF7"/>
</svg>
