<svg width="41" height="40" viewBox="0 0 41 40" fill="none" xmlns="http://www.w3.org/2000/svg">
<rect x="0.5" width="40" height="40" rx="20" fill="white"/>
<path d="M15.5 26H27.5C28.05 26 28.5 25.55 28.5 25V11C28.5 10.45 28.05 10 27.5 10H13.5C12.95 10 12.5 10.45 12.5 11V27C12.5 28.66 13.84 30 15.5 30H28.5V28H15.5C14.95 28 14.5 27.55 14.5 27C14.5 26.45 14.95 26 15.5 26ZM13.41 24.85L13.32 24.76C14.27 23.86 14.5 23.5 14.5 22.26V12H26.5V24H15.5C14.68 24 13.95 24.33 13.41 24.85Z" fill="#4A7BF7"/>
<path d="M24.5 14H16.5V16H24.5V14Z" fill="#4A7BF7"/>
<path d="M24.5 18H16.5V20H24.5V18Z" fill="#4A7BF7"/>
</svg>
