<svg width="40" height="40" viewBox="0 0 40 40" fill="none" xmlns="http://www.w3.org/2000/svg">
<path d="M8.33366 13.166C8.33366 11.3327 7.50033 10.4993 6.00033 10.166V9.99935H31.667V24.9993H8.33366V13.166ZM1.66699 33.3327V31.666H38.3337V33.3327C38.3337 34.166 37.5003 34.9993 36.667 34.9993H3.33366C2.33366 34.9993 1.66699 34.166 1.66699 33.3327ZM6.66699 6.66602C5.83366 6.66602 5.00033 7.33268 5.00033 8.33268V26.666C5.00033 27.666 5.83366 28.3327 6.66699 28.3327H33.3337C34.167 28.3327 35.0003 27.666 35.0003 26.666V8.33268C35.0003 7.33268 34.167 6.66602 33.3337 6.66602H6.66699Z" fill="#4A7BF7"/>
</svg>
