<svg width="632" height="218" viewBox="0 0 632 218" fill="none" xmlns="http://www.w3.org/2000/svg">
<path d="M565.37 212.196C563.987 212.196 562.795 211.9 561.795 211.309C560.801 210.711 560.033 209.873 559.491 208.794C558.954 207.709 558.686 206.438 558.686 204.981C558.686 203.542 558.954 202.274 559.491 201.177C560.033 200.079 560.789 199.223 561.758 198.607C562.734 197.991 563.874 197.684 565.178 197.684C565.971 197.684 566.739 197.815 567.483 198.077C568.227 198.339 568.894 198.75 569.485 199.311C570.077 199.872 570.543 200.601 570.885 201.497C571.226 202.387 571.397 203.469 571.397 204.743V205.712H560.231V203.664H568.717C568.717 202.945 568.571 202.308 568.278 201.753C567.986 201.192 567.574 200.75 567.044 200.427C566.52 200.104 565.904 199.942 565.197 199.942C564.429 199.942 563.758 200.131 563.185 200.509C562.618 200.881 562.179 201.369 561.868 201.972C561.563 202.57 561.411 203.219 561.411 203.92V205.52C561.411 206.459 561.575 207.258 561.905 207.916C562.24 208.575 562.706 209.078 563.304 209.425C563.901 209.767 564.599 209.937 565.398 209.937C565.916 209.937 566.389 209.864 566.815 209.718C567.242 209.565 567.611 209.34 567.922 209.041C568.233 208.742 568.47 208.373 568.635 207.935L571.223 208.401C571.016 209.163 570.644 209.831 570.107 210.404C569.577 210.971 568.909 211.413 568.105 211.73C567.306 212.04 566.395 212.196 565.37 212.196Z" fill="#383944"/>
<path d="M545.992 208.083L552.183 197.868H555.127V211.914H552.448V201.691L546.284 211.914H543.312V197.868H545.992V208.083Z" fill="#383944"/>
<path d="M537.228 203.711V206.08H529.62V203.711H537.228ZM530.388 197.868V211.914H527.708V197.868H530.388ZM539.139 197.868V211.914H536.469V197.868H539.139Z" fill="#383944"/>
<path d="M516.619 212.223C515.729 212.223 514.925 212.059 514.205 211.73C513.486 211.394 512.916 210.91 512.495 210.276C512.081 209.642 511.873 208.864 511.873 207.944C511.873 207.151 512.026 206.499 512.331 205.987C512.635 205.475 513.047 205.069 513.565 204.771C514.083 204.472 514.662 204.246 515.302 204.094C515.943 203.941 516.595 203.826 517.259 203.746C518.101 203.649 518.783 203.57 519.308 203.509C519.832 203.442 520.213 203.335 520.451 203.189C520.689 203.042 520.807 202.805 520.807 202.475V202.411C520.807 201.613 520.582 200.994 520.131 200.555C519.686 200.116 519.021 199.897 518.137 199.897C517.217 199.897 516.491 200.101 515.961 200.509C515.437 200.912 515.074 201.36 514.873 201.853L512.303 201.268C512.608 200.415 513.053 199.726 513.638 199.202C514.23 198.671 514.909 198.287 515.677 198.049C516.446 197.806 517.253 197.684 518.101 197.684C518.662 197.684 519.256 197.751 519.884 197.885C520.518 198.013 521.109 198.251 521.658 198.598C522.213 198.946 522.667 199.442 523.02 200.089C523.374 200.729 523.551 201.561 523.551 202.585V211.912H520.881V209.992H520.771C520.594 210.346 520.329 210.693 519.975 211.035C519.622 211.376 519.168 211.659 518.613 211.885C518.058 212.111 517.394 212.223 516.619 212.223ZM517.214 210.029C517.97 210.029 518.616 209.879 519.152 209.581C519.695 209.282 520.106 208.892 520.387 208.41C520.673 207.922 520.817 207.401 520.817 206.846V205.036C520.719 205.133 520.53 205.225 520.25 205.31C519.975 205.389 519.661 205.459 519.308 205.52C518.954 205.575 518.61 205.627 518.274 205.676C517.939 205.719 517.659 205.755 517.433 205.786C516.903 205.853 516.418 205.965 515.979 206.124C515.546 206.282 515.199 206.511 514.937 206.81C514.681 207.102 514.553 207.493 514.553 207.98C514.553 208.657 514.803 209.169 515.302 209.517C515.802 209.858 516.439 210.029 517.214 210.029Z" fill="#383944"/>
<path d="M497.431 211.914V197.868H503.256C504.841 197.868 506.097 198.207 507.024 198.883C507.951 199.554 508.414 200.465 508.414 201.617C508.414 202.44 508.152 203.093 507.627 203.574C507.103 204.056 506.408 204.379 505.543 204.544C506.17 204.617 506.747 204.806 507.271 205.111C507.795 205.409 508.216 205.812 508.533 206.318C508.856 206.824 509.017 207.427 509.017 208.128C509.017 208.872 508.825 209.53 508.441 210.103C508.057 210.67 507.499 211.115 506.768 211.439C506.042 211.756 505.168 211.914 504.143 211.914H497.431ZM500.001 209.628H504.143C504.82 209.628 505.351 209.466 505.735 209.143C506.119 208.82 506.311 208.381 506.311 207.827C506.311 207.174 506.119 206.662 505.735 206.29C505.351 205.912 504.82 205.723 504.143 205.723H500.001V209.628ZM500.001 203.721H503.284C503.796 203.721 504.235 203.647 504.601 203.501C504.973 203.355 505.256 203.148 505.451 202.879C505.652 202.605 505.753 202.282 505.753 201.91C505.753 201.367 505.53 200.944 505.085 200.639C504.64 200.334 504.031 200.182 503.256 200.182H500.001V203.721Z" fill="#383944"/>
<path d="M487.318 212.196C486.001 212.196 484.852 211.894 483.87 211.291C482.889 210.687 482.127 209.843 481.584 208.758C481.042 207.672 480.771 206.404 480.771 204.953C480.771 203.496 481.042 202.222 481.584 201.131C482.127 200.04 482.889 199.192 483.87 198.589C484.852 197.985 486.001 197.684 487.318 197.684C488.635 197.684 489.784 197.985 490.765 198.589C491.747 199.192 492.509 200.04 493.052 201.131C493.594 202.222 493.865 203.496 493.865 204.953C493.865 206.404 493.594 207.672 493.052 208.758C492.509 209.843 491.747 210.687 490.765 211.291C489.784 211.894 488.635 212.196 487.318 212.196ZM487.327 209.901C488.181 209.901 488.888 209.675 489.449 209.224C490.009 208.773 490.424 208.172 490.692 207.422C490.967 206.673 491.104 205.847 491.104 204.944C491.104 204.048 490.967 203.225 490.692 202.475C490.424 201.719 490.009 201.113 489.449 200.656C488.888 200.198 488.181 199.97 487.327 199.97C486.468 199.97 485.754 200.198 485.187 200.656C484.626 201.113 484.209 201.719 483.935 202.475C483.666 203.225 483.532 204.048 483.532 204.944C483.532 205.847 483.666 206.673 483.935 207.422C484.209 208.172 484.626 208.773 485.187 209.224C485.754 209.675 486.468 209.901 487.327 209.901Z" fill="#383944"/>
<path d="M464.993 217.18V197.866H467.663V200.143H467.892C468.05 199.851 468.279 199.512 468.578 199.128C468.876 198.744 469.291 198.409 469.821 198.123C470.352 197.83 471.053 197.684 471.924 197.684C473.058 197.684 474.07 197.97 474.96 198.543C475.85 199.116 476.548 199.942 477.054 201.021C477.567 202.1 477.823 203.399 477.823 204.917C477.823 206.435 477.57 207.736 477.064 208.822C476.558 209.901 475.863 210.733 474.979 211.318C474.095 211.897 473.086 212.187 471.952 212.187C471.098 212.187 470.4 212.043 469.858 211.757C469.321 211.47 468.901 211.135 468.596 210.751C468.291 210.367 468.056 210.026 467.892 209.727H467.727V217.18H464.993ZM467.672 204.889C467.672 205.877 467.816 206.743 468.102 207.486C468.389 208.23 468.803 208.812 469.346 209.233C469.888 209.648 470.553 209.855 471.339 209.855C472.156 209.855 472.839 209.638 473.388 209.206C473.936 208.767 474.351 208.172 474.631 207.422C474.918 206.673 475.061 205.828 475.061 204.889C475.061 203.963 474.921 203.131 474.64 202.393C474.366 201.655 473.951 201.073 473.397 200.646C472.848 200.22 472.162 200.006 471.339 200.006C470.547 200.006 469.876 200.211 469.327 200.619C468.785 201.027 468.373 201.597 468.093 202.329C467.812 203.061 467.672 203.914 467.672 204.889Z" fill="#383944"/>
<path d="M451.667 208.083L457.857 197.868H460.802V211.914H458.123V201.691L451.959 211.914H448.987V197.868H451.667V208.083Z" fill="#383944"/>
<path d="M433.729 200.227V197.868H445.58V200.227H440.999V211.914H438.328V200.227H433.729Z" fill="#383944"/>
<path d="M419.741 211.914V197.868H422.475V203.757H423.792L428.428 197.868H431.812L426.371 204.699L431.876 211.914H428.483L424.249 206.299H422.475V211.914H419.741Z" fill="#383944"/>
<path d="M410.166 212.196C408.782 212.196 407.591 211.9 406.591 211.309C405.597 210.711 404.829 209.873 404.286 208.794C403.75 207.709 403.482 206.438 403.482 204.981C403.482 203.542 403.75 202.274 404.286 201.177C404.829 200.079 405.585 199.223 406.554 198.607C407.53 197.991 408.67 197.684 409.974 197.684C410.767 197.684 411.535 197.815 412.279 198.077C413.022 198.339 413.69 198.75 414.281 199.311C414.873 199.872 415.339 200.601 415.68 201.497C416.022 202.387 416.193 203.469 416.193 204.743V205.712H405.027V203.664H413.513C413.513 202.945 413.367 202.308 413.074 201.753C412.782 201.192 412.37 200.75 411.84 200.427C411.315 200.104 410.7 199.942 409.993 199.942C409.224 199.942 408.554 200.131 407.981 200.509C407.414 200.881 406.975 201.369 406.664 201.972C406.359 202.57 406.207 203.219 406.207 203.92V205.52C406.207 206.459 406.371 207.258 406.701 207.916C407.036 208.575 407.502 209.078 408.1 209.425C408.697 209.767 409.395 209.937 410.194 209.937C410.712 209.937 411.184 209.864 411.611 209.718C412.038 209.565 412.407 209.34 412.718 209.041C413.029 208.742 413.266 208.373 413.431 207.935L416.019 208.401C415.812 209.163 415.44 209.831 414.903 210.404C414.373 210.971 413.705 211.413 412.901 211.73C412.102 212.04 411.19 212.196 410.166 212.196Z" fill="#383944"/>
<path d="M393.999 212.196C392.683 212.196 391.533 211.894 390.552 211.291C389.57 210.687 388.808 209.843 388.266 208.758C387.723 207.672 387.452 206.404 387.452 204.953C387.452 203.496 387.723 202.222 388.266 201.131C388.808 200.04 389.57 199.192 390.552 198.589C391.533 197.985 392.683 197.684 393.999 197.684C395.316 197.684 396.465 197.985 397.447 198.589C398.428 199.192 399.19 200.04 399.733 201.131C400.276 202.222 400.547 203.496 400.547 204.953C400.547 206.404 400.276 207.672 399.733 208.758C399.19 209.843 398.428 210.687 397.447 211.291C396.465 211.894 395.316 212.196 393.999 212.196ZM394.009 209.901C394.862 209.901 395.569 209.675 396.13 209.224C396.691 208.773 397.105 208.172 397.374 207.422C397.648 206.673 397.785 205.847 397.785 204.944C397.785 204.048 397.648 203.225 397.374 202.475C397.105 201.719 396.691 201.113 396.13 200.656C395.569 200.198 394.862 199.97 394.009 199.97C393.149 199.97 392.436 200.198 391.869 200.656C391.308 201.113 390.89 201.719 390.616 202.475C390.348 203.225 390.214 204.048 390.214 204.944C390.214 205.847 390.348 206.673 390.616 207.422C390.89 208.172 391.308 208.773 391.869 209.224C392.436 209.675 393.149 209.901 394.009 209.901Z" fill="#383944"/>
<path d="M371.674 217.18V197.866H374.345V200.143H374.573C374.732 199.851 374.96 199.512 375.259 199.128C375.558 198.744 375.972 198.409 376.503 198.123C377.033 197.83 377.734 197.684 378.606 197.684C379.74 197.684 380.752 197.97 381.642 198.543C382.532 199.116 383.23 199.942 383.736 201.021C384.248 202.1 384.504 203.399 384.504 204.917C384.504 206.435 384.251 207.736 383.745 208.822C383.239 209.901 382.544 210.733 381.66 211.318C380.776 211.897 379.767 212.187 378.633 212.187C377.78 212.187 377.082 212.043 376.539 211.757C376.003 211.47 375.582 211.135 375.277 210.751C374.972 210.367 374.738 210.026 374.573 209.727H374.409V217.18H371.674ZM374.354 204.889C374.354 205.877 374.497 206.743 374.783 207.486C375.07 208.23 375.485 208.812 376.027 209.233C376.57 209.648 377.234 209.855 378.021 209.855C378.837 209.855 379.52 209.638 380.069 209.206C380.618 208.767 381.032 208.172 381.313 207.422C381.599 206.673 381.742 205.828 381.742 204.889C381.742 203.963 381.602 203.131 381.322 202.393C381.047 201.655 380.633 201.073 380.078 200.646C379.529 200.22 378.844 200.006 378.021 200.006C377.228 200.006 376.557 200.211 376.009 200.619C375.466 201.027 375.055 201.597 374.774 202.329C374.494 203.061 374.354 203.914 374.354 204.889Z" fill="#383944"/>
<path d="M367.058 193.183V211.911H364.241V195.597H355.426V211.911H352.609V193.183H367.058Z" fill="#383944"/>
<path d="M625.899 183.013C624.515 183.013 623.323 182.718 622.323 182.126C621.33 181.529 620.562 180.691 620.019 179.612C619.483 178.526 619.214 177.255 619.214 175.798C619.214 174.36 619.483 173.092 620.019 171.994C620.562 170.897 621.318 170.04 622.287 169.425C623.262 168.809 624.402 168.501 625.707 168.501C626.499 168.501 627.268 168.632 628.011 168.894C628.755 169.156 629.423 169.568 630.014 170.129C630.605 170.69 631.072 171.418 631.413 172.314C631.754 173.204 631.925 174.286 631.925 175.561V176.53H620.76V174.481H629.246C629.246 173.762 629.1 173.125 628.807 172.57C628.514 172.009 628.103 171.567 627.572 171.244C627.048 170.921 626.432 170.76 625.725 170.76C624.957 170.76 624.287 170.949 623.713 171.327C623.146 171.698 622.708 172.186 622.397 172.79C622.092 173.387 621.939 174.036 621.939 174.738V176.338C621.939 177.277 622.104 178.075 622.433 178.734C622.769 179.392 623.235 179.895 623.832 180.242C624.43 180.584 625.128 180.755 625.926 180.755C626.445 180.755 626.917 180.681 627.344 180.535C627.771 180.383 628.139 180.157 628.45 179.858C628.761 179.56 628.999 179.191 629.164 178.752L631.751 179.218C631.544 179.98 631.172 180.648 630.636 181.221C630.105 181.788 629.438 182.23 628.633 182.547C627.835 182.858 626.923 183.013 625.899 183.013Z" fill="#383944"/>
<path d="M609.731 183.013C608.414 183.013 607.265 182.712 606.283 182.108C605.302 181.504 604.54 180.66 603.997 179.575C603.454 178.49 603.183 177.222 603.183 175.771C603.183 174.314 603.454 173.04 603.997 171.948C604.54 170.857 605.302 170.01 606.283 169.406C607.265 168.803 608.414 168.501 609.731 168.501C611.047 168.501 612.197 168.803 613.178 169.406C614.16 170.01 614.922 170.857 615.464 171.948C616.007 173.04 616.278 174.314 616.278 175.771C616.278 177.222 616.007 178.49 615.464 179.575C614.922 180.66 614.16 181.504 613.178 182.108C612.197 182.712 611.047 183.013 609.731 183.013ZM609.74 180.718C610.593 180.718 611.3 180.492 611.861 180.041C612.422 179.59 612.837 178.99 613.105 178.24C613.379 177.49 613.516 176.664 613.516 175.762C613.516 174.866 613.379 174.043 613.105 173.293C612.837 172.537 612.422 171.93 611.861 171.473C611.3 171.016 610.593 170.787 609.74 170.787C608.88 170.787 608.167 171.016 607.6 171.473C607.039 171.93 606.621 172.537 606.347 173.293C606.079 174.043 605.945 174.866 605.945 175.762C605.945 176.664 606.079 177.49 606.347 178.24C606.621 178.99 607.039 179.59 607.6 180.041C608.167 180.492 608.88 180.718 609.74 180.718Z" fill="#383944"/>
<path d="M597.731 174.525V176.893H590.123V174.525H597.731ZM590.891 168.682V182.728H588.211V168.682H590.891ZM599.642 168.682V182.728H596.972V168.682H599.642Z" fill="#383944"/>
<path d="M582.127 174.525V176.893H574.518V174.525H582.127ZM575.287 168.682V182.728H572.607V168.682H575.287ZM584.038 168.682V182.728H581.368V168.682H584.038Z" fill="#383944"/>
<path d="M561.518 183.041C560.628 183.041 559.823 182.876 559.104 182.547C558.385 182.212 557.815 181.727 557.394 181.093C556.98 180.459 556.772 179.682 556.772 178.761C556.772 177.969 556.925 177.316 557.229 176.804C557.534 176.292 557.946 175.887 558.464 175.588C558.982 175.289 559.561 175.064 560.201 174.911C560.842 174.759 561.494 174.643 562.158 174.564C563 174.466 563.682 174.387 564.207 174.326C564.731 174.259 565.112 174.152 565.35 174.006C565.588 173.86 565.706 173.622 565.706 173.293V173.229C565.706 172.43 565.481 171.811 565.03 171.372C564.585 170.933 563.92 170.714 563.036 170.714C562.116 170.714 561.39 170.918 560.86 171.327C560.336 171.729 559.973 172.177 559.772 172.671L557.202 172.086C557.507 171.232 557.952 170.543 558.537 170.019C559.128 169.489 559.808 169.105 560.576 168.867C561.344 168.623 562.152 168.501 563 168.501C563.56 168.501 564.155 168.568 564.783 168.702C565.417 168.83 566.008 169.068 566.557 169.415C567.112 169.763 567.566 170.26 567.919 170.906C568.273 171.546 568.45 172.378 568.45 173.402V182.73H565.78V180.809H565.67C565.493 181.163 565.228 181.511 564.874 181.852C564.521 182.193 564.066 182.477 563.512 182.702C562.957 182.928 562.292 183.041 561.518 183.041ZM562.113 180.846C562.869 180.846 563.515 180.697 564.051 180.398C564.594 180.099 565.005 179.709 565.286 179.227C565.572 178.74 565.716 178.219 565.716 177.664V175.853C565.618 175.951 565.429 176.042 565.149 176.127C564.874 176.207 564.56 176.277 564.207 176.338C563.853 176.393 563.509 176.444 563.173 176.493C562.838 176.536 562.558 176.573 562.332 176.603C561.802 176.67 561.317 176.783 560.878 176.941C560.445 177.1 560.098 177.328 559.836 177.627C559.58 177.92 559.452 178.31 559.452 178.798C559.452 179.474 559.702 179.986 560.201 180.334C560.701 180.675 561.338 180.846 562.113 180.846Z" fill="#383944"/>
<path d="M542.332 182.728V168.682H548.157C549.742 168.682 550.997 169.02 551.924 169.697C552.851 170.367 553.314 171.279 553.314 172.431C553.314 173.254 553.052 173.906 552.528 174.388C552.003 174.869 551.308 175.193 550.443 175.357C551.071 175.43 551.647 175.619 552.171 175.924C552.695 176.223 553.116 176.625 553.433 177.131C553.756 177.637 553.918 178.241 553.918 178.942C553.918 179.686 553.726 180.344 553.342 180.917C552.957 181.484 552.4 181.929 551.668 182.252C550.943 182.569 550.068 182.728 549.044 182.728H542.332ZM544.901 180.441H549.044C549.72 180.441 550.251 180.28 550.635 179.957C551.019 179.634 551.211 179.195 551.211 178.64C551.211 177.988 551.019 177.476 550.635 177.104C550.251 176.726 549.72 176.537 549.044 176.537H544.901V180.441ZM544.901 174.534H548.184C548.696 174.534 549.135 174.461 549.501 174.315C549.873 174.168 550.156 173.961 550.351 173.693C550.552 173.418 550.653 173.095 550.653 172.724C550.653 172.181 550.431 171.757 549.985 171.452C549.54 171.148 548.931 170.995 548.157 170.995H544.901V174.534Z" fill="#383944"/>
<path d="M532.217 183.013C530.9 183.013 529.751 182.712 528.769 182.108C527.788 181.504 527.026 180.66 526.483 179.575C525.941 178.49 525.669 177.222 525.669 175.771C525.669 174.314 525.941 173.04 526.483 171.948C527.026 170.857 527.788 170.01 528.769 169.406C529.751 168.803 530.9 168.501 532.217 168.501C533.534 168.501 534.683 168.803 535.664 169.406C536.646 170.01 537.408 170.857 537.95 171.948C538.493 173.04 538.764 174.314 538.764 175.771C538.764 177.222 538.493 178.49 537.95 179.575C537.408 180.66 536.646 181.504 535.664 182.108C534.683 182.712 533.534 183.013 532.217 183.013ZM532.226 180.718C533.08 180.718 533.787 180.492 534.348 180.041C534.908 179.59 535.323 178.99 535.591 178.24C535.866 177.49 536.003 176.664 536.003 175.762C536.003 174.866 535.866 174.043 535.591 173.293C535.323 172.537 534.908 171.93 534.348 171.473C533.787 171.016 533.08 170.787 532.226 170.787C531.366 170.787 530.653 171.016 530.086 171.473C529.525 171.93 529.108 172.537 528.833 173.293C528.565 174.043 528.431 174.866 528.431 175.762C528.431 176.664 528.565 177.49 528.833 178.24C529.108 178.99 529.525 179.59 530.086 180.041C530.653 180.492 531.366 180.718 532.226 180.718Z" fill="#383944"/>
<path d="M509.892 187.997V168.684H512.562V170.961H512.79C512.949 170.668 513.178 170.33 513.476 169.946C513.775 169.562 514.19 169.226 514.72 168.94C515.25 168.647 515.951 168.501 516.823 168.501C517.957 168.501 518.969 168.788 519.859 169.361C520.749 169.934 521.447 170.76 521.953 171.839C522.465 172.918 522.721 174.216 522.721 175.734C522.721 177.252 522.468 178.554 521.962 179.639C521.456 180.718 520.761 181.55 519.877 182.135C518.993 182.715 517.984 183.004 516.851 183.004C515.997 183.004 515.299 182.861 514.756 182.574C514.22 182.288 513.799 181.953 513.495 181.568C513.19 181.184 512.955 180.843 512.79 180.544H512.626V187.997H509.892ZM512.571 175.707C512.571 176.694 512.714 177.56 513.001 178.304C513.287 179.048 513.702 179.63 514.244 180.05C514.787 180.465 515.451 180.672 516.238 180.672C517.055 180.672 517.738 180.456 518.286 180.023C518.835 179.584 519.249 178.99 519.53 178.24C519.816 177.49 519.96 176.646 519.96 175.707C519.96 174.78 519.819 173.948 519.539 173.21C519.265 172.473 518.85 171.891 518.295 171.464C517.747 171.037 517.061 170.824 516.238 170.824C515.445 170.824 514.775 171.028 514.226 171.436C513.684 171.845 513.272 172.415 512.992 173.146C512.711 173.878 512.571 174.731 512.571 175.707Z" fill="#383944"/>
<path d="M496.565 178.896L502.756 168.682H505.701V182.728H503.021V172.504L496.858 182.728H493.886V168.682H496.565V178.896Z" fill="#383944"/>
<path d="M479.538 179.017H482.336C482.372 179.59 482.631 180.032 483.113 180.343C483.601 180.654 484.232 180.809 485.006 180.809C485.792 180.809 486.463 180.642 487.018 180.307C487.573 179.965 487.85 179.438 487.85 178.725C487.85 178.298 487.743 177.926 487.53 177.609C487.323 177.286 487.027 177.036 486.643 176.859C486.265 176.682 485.817 176.594 485.299 176.594H483.013V174.445H485.299C486.073 174.445 486.652 174.268 487.036 173.915C487.42 173.561 487.612 173.119 487.612 172.589C487.612 172.016 487.405 171.555 486.99 171.208C486.582 170.854 486.012 170.677 485.28 170.677C484.537 170.677 483.918 170.845 483.424 171.18C482.93 171.51 482.671 171.936 482.647 172.461H479.885C479.903 171.674 480.141 170.985 480.598 170.394C481.062 169.796 481.684 169.333 482.464 169.004C483.25 168.669 484.143 168.501 485.143 168.501C486.186 168.501 487.088 168.669 487.85 169.004C488.612 169.339 489.2 169.803 489.615 170.394C490.035 170.985 490.246 171.665 490.246 172.433C490.246 173.207 490.014 173.841 489.551 174.335C489.094 174.823 488.496 175.173 487.758 175.387V175.533C488.301 175.57 488.783 175.734 489.203 176.027C489.624 176.32 489.953 176.707 490.191 177.188C490.429 177.67 490.548 178.215 490.548 178.825C490.548 179.685 490.31 180.428 489.834 181.056C489.365 181.684 488.713 182.169 487.877 182.51C487.048 182.846 486.1 183.013 485.033 183.013C483.997 183.013 483.067 182.852 482.244 182.529C481.427 182.199 480.778 181.736 480.297 181.139C479.821 180.541 479.568 179.834 479.538 179.017Z" fill="#383944"/>
<path d="M467.044 178.896L473.235 168.682H476.18V182.728H473.5V172.504L467.337 182.728H464.365V168.682H467.044V178.896Z" fill="#383944"/>
<path d="M449.106 171.041V168.682H460.958V171.041H456.376V182.728H453.706V171.041H449.106Z" fill="#383944"/>
<path d="M439.759 183.041C438.869 183.041 438.064 182.876 437.345 182.547C436.626 182.212 436.056 181.727 435.635 181.093C435.22 180.459 435.013 179.682 435.013 178.761C435.013 177.969 435.166 177.316 435.47 176.804C435.775 176.292 436.187 175.887 436.705 175.588C437.223 175.289 437.802 175.064 438.442 174.911C439.082 174.759 439.735 174.643 440.399 174.564C441.241 174.466 441.923 174.387 442.448 174.326C442.972 174.259 443.353 174.152 443.591 174.006C443.828 173.86 443.947 173.622 443.947 173.293V173.229C443.947 172.43 443.722 171.811 443.271 171.372C442.826 170.933 442.161 170.714 441.277 170.714C440.357 170.714 439.631 170.918 439.101 171.327C438.576 171.729 438.214 172.177 438.013 172.671L435.443 172.086C435.748 171.232 436.193 170.543 436.778 170.019C437.369 169.489 438.049 169.105 438.817 168.867C439.585 168.623 440.393 168.501 441.241 168.501C441.801 168.501 442.396 168.568 443.024 168.702C443.658 168.83 444.249 169.068 444.798 169.415C445.353 169.763 445.807 170.26 446.16 170.906C446.514 171.546 446.691 172.378 446.691 173.402V182.73H444.021V180.809H443.911C443.734 181.163 443.469 181.511 443.115 181.852C442.762 182.193 442.307 182.477 441.753 182.702C441.198 182.928 440.533 183.041 439.759 183.041ZM440.354 180.846C441.11 180.846 441.756 180.697 442.292 180.398C442.835 180.099 443.246 179.709 443.527 179.227C443.813 178.74 443.956 178.219 443.956 177.664V175.853C443.859 175.951 443.67 176.042 443.39 176.127C443.115 176.207 442.801 176.277 442.448 176.338C442.094 176.393 441.75 176.444 441.414 176.493C441.079 176.536 440.799 176.573 440.573 176.603C440.043 176.67 439.558 176.783 439.119 176.941C438.686 177.1 438.339 177.328 438.077 177.627C437.821 177.92 437.693 178.31 437.693 178.798C437.693 179.474 437.942 179.986 438.442 180.334C438.942 180.675 439.579 180.846 440.354 180.846Z" fill="#383944"/>
<path d="M423.576 179.344L428.111 168.682H430.471L424.591 182.728H422.561L416.8 168.682H419.131L423.576 179.344ZM418.372 168.682V182.728H415.693V168.682H418.372ZM428.852 182.728V168.682H431.513V182.728H428.852Z" fill="#383944"/>
<path d="M405.578 183.013C404.262 183.013 403.112 182.712 402.131 182.108C401.149 181.504 400.387 180.66 399.845 179.575C399.302 178.49 399.031 177.222 399.031 175.771C399.031 174.314 399.302 173.04 399.845 171.948C400.387 170.857 401.149 170.01 402.131 169.406C403.112 168.803 404.262 168.501 405.578 168.501C406.895 168.501 408.044 168.803 409.026 169.406C410.007 170.01 410.769 170.857 411.312 171.948C411.855 173.04 412.126 174.314 412.126 175.771C412.126 177.222 411.855 178.49 411.312 179.575C410.769 180.66 410.007 181.504 409.026 182.108C408.044 182.712 406.895 183.013 405.578 183.013ZM405.588 180.718C406.441 180.718 407.148 180.492 407.709 180.041C408.27 179.59 408.685 178.99 408.953 178.24C409.227 177.49 409.364 176.664 409.364 175.762C409.364 174.866 409.227 174.043 408.953 173.293C408.685 172.537 408.27 171.93 407.709 171.473C407.148 171.016 406.441 170.787 405.588 170.787C404.728 170.787 404.015 171.016 403.448 171.473C402.887 171.93 402.469 172.537 402.195 173.293C401.927 174.043 401.793 174.866 401.793 175.762C401.793 176.664 401.927 177.49 402.195 178.24C402.469 178.99 402.887 179.59 403.448 180.041C404.015 180.492 404.728 180.718 405.588 180.718Z" fill="#383944"/>
<path d="M385.057 171.041V168.682H396.908V171.041H392.327V182.728H389.657V171.041H385.057Z" fill="#383944"/>
<path d="M370.743 182.728V168.682H376.568C378.153 168.682 379.409 169.02 380.335 169.697C381.262 170.367 381.725 171.279 381.725 172.431C381.725 173.254 381.463 173.906 380.939 174.388C380.415 174.869 379.72 175.193 378.854 175.357C379.482 175.43 380.058 175.619 380.582 175.924C381.107 176.223 381.527 176.625 381.844 177.131C382.167 177.637 382.329 178.241 382.329 178.942C382.329 179.686 382.137 180.344 381.753 180.917C381.369 181.484 380.811 181.929 380.079 182.252C379.354 182.569 378.479 182.728 377.455 182.728H370.743ZM373.313 180.441H377.455C378.132 180.441 378.662 180.28 379.046 179.957C379.43 179.634 379.622 179.195 379.622 178.64C379.622 177.988 379.43 177.476 379.046 177.104C378.662 176.726 378.132 176.537 377.455 176.537H373.313V180.441ZM373.313 174.534H376.595C377.107 174.534 377.546 174.461 377.912 174.315C378.284 174.168 378.568 173.961 378.763 173.693C378.964 173.418 379.064 173.095 379.064 172.724C379.064 172.181 378.842 171.757 378.397 171.452C377.952 171.148 377.342 170.995 376.568 170.995H373.313V174.534Z" fill="#383944"/>
<path d="M354 182.728H351L357.74 164H361.005L367.744 182.728H364.745L359.45 167.402H359.304L354 182.728ZM354.503 175.394H364.233V177.772H354.503V175.394Z" fill="#383944"/>
<path d="M185.882 44.8416C184.601 44.8416 183.498 44.568 182.572 44.0207C181.653 43.4677 180.942 42.6919 180.44 41.6932C179.943 40.6889 179.695 39.5125 179.695 38.164C179.695 36.8324 179.943 35.6588 180.44 34.6432C180.942 33.6276 181.641 32.8348 182.539 32.265C183.441 31.6951 184.496 31.4102 185.704 31.4102C186.437 31.4102 187.148 31.5315 187.837 31.7741C188.525 32.0167 189.143 32.3976 189.69 32.9167C190.237 33.4357 190.669 34.11 190.985 34.9394C191.301 35.7632 191.459 36.7647 191.459 37.9439V38.8411H181.125V36.9452H188.979C188.979 36.2795 188.844 35.6898 188.573 35.1764C188.302 34.6573 187.921 34.2482 187.43 33.9492C186.945 33.6501 186.375 33.5006 185.721 33.5006C185.01 33.5006 184.389 33.6755 183.859 34.0254C183.334 34.3695 182.928 34.8209 182.64 35.3795C182.358 35.9325 182.217 36.5334 182.217 37.1822V38.6633C182.217 39.5322 182.369 40.2714 182.674 40.8807C182.984 41.4901 183.416 41.9556 183.969 42.2772C184.522 42.5932 185.168 42.7512 185.907 42.7512C186.387 42.7512 186.824 42.6835 187.219 42.548C187.614 42.407 187.955 42.1982 188.243 41.9218C188.531 41.6453 188.751 41.3039 188.903 40.8977L191.298 41.3293C191.106 42.0346 190.762 42.6524 190.266 43.1828C189.775 43.7075 189.157 44.1166 188.412 44.41C187.673 44.6978 186.829 44.8416 185.882 44.8416Z" fill="#383944"/>
<path d="M167.944 41.0337L173.674 31.5801H176.399V44.5799H173.919V35.1178L168.215 44.5799H165.464V31.5801H167.944V41.0337Z" fill="#383944"/>
<path d="M159.834 36.9882V39.1802H152.792V36.9882H159.834ZM153.503 31.5801V44.5799H151.023V31.5801H153.503ZM161.603 31.5801V44.5799H159.131V31.5801H161.603Z" fill="#383944"/>
<path d="M140.761 44.867C139.937 44.867 139.193 44.7147 138.527 44.41C137.861 44.0997 137.333 43.6511 136.944 43.0643C136.56 42.4775 136.369 41.7581 136.369 40.9061C136.369 40.1726 136.51 39.5689 136.792 39.095C137.074 38.621 137.455 38.2458 137.934 37.9693C138.414 37.6929 138.95 37.4841 139.542 37.343C140.135 37.202 140.739 37.0948 141.354 37.0214C142.132 36.9311 142.764 36.8578 143.249 36.8014C143.735 36.7393 144.087 36.6406 144.307 36.5051C144.527 36.3697 144.637 36.1497 144.637 35.845V35.7858C144.637 35.0466 144.429 34.4739 144.011 34.0677C143.599 33.6614 142.984 33.4583 142.166 33.4583C141.314 33.4583 140.643 33.6473 140.152 34.0254C139.667 34.3978 139.331 34.8125 139.145 35.2695L136.766 34.7278C137.049 33.9379 137.46 33.3003 138.002 32.8151C138.549 32.3242 139.179 31.9687 139.889 31.7487C140.6 31.523 141.348 31.4102 142.132 31.4102C142.651 31.4102 143.201 31.4722 143.783 31.5964C144.369 31.7148 144.917 31.9349 145.425 32.2565C145.938 32.5781 146.358 33.038 146.686 33.636C147.013 34.2285 147.176 34.9987 147.176 35.9466V44.5793H144.705V42.8019H144.604C144.44 43.1292 144.195 43.4508 143.867 43.7668C143.54 44.0827 143.12 44.3451 142.606 44.5539C142.093 44.7626 141.478 44.867 140.761 44.867ZM141.311 42.8358C142.011 42.8358 142.609 42.6976 143.106 42.4211C143.608 42.1446 143.989 41.7835 144.248 41.3378C144.513 40.8864 144.646 40.404 144.646 39.8905V38.2148C144.556 38.305 144.381 38.3897 144.121 38.4687C143.867 38.542 143.577 38.6069 143.249 38.6633C142.922 38.7141 142.603 38.7621 142.293 38.8072C141.983 38.8467 141.723 38.8806 141.514 38.9088C141.024 38.9708 140.575 39.0752 140.169 39.2219C139.768 39.3686 139.447 39.5802 139.204 39.8567C138.967 40.1275 138.848 40.4886 138.848 40.94C138.848 41.5663 139.08 42.0402 139.542 42.3618C140.005 42.6778 140.595 42.8358 141.311 42.8358Z" fill="#383944"/>
<path d="M123.003 44.5799V31.5801H128.394C129.861 31.5801 131.023 31.8932 131.881 32.5195C132.738 33.1402 133.167 33.9837 133.167 35.0501C133.167 35.8118 132.925 36.4155 132.439 36.8613C131.954 37.307 131.311 37.606 130.51 37.7584C131.091 37.8261 131.624 38.001 132.109 38.2831C132.595 38.5596 132.984 38.932 133.277 39.4003C133.576 39.8686 133.726 40.4272 133.726 41.0761C133.726 41.7644 133.548 42.3738 133.193 42.9042C132.837 43.4289 132.321 43.8408 131.644 44.1398C130.972 44.4332 130.163 44.5799 129.215 44.5799H123.003ZM125.381 42.4641H129.215C129.841 42.4641 130.332 42.3145 130.688 42.0155C131.043 41.7165 131.221 41.3102 131.221 40.7968C131.221 40.193 131.043 39.7191 130.688 39.3749C130.332 39.0251 129.841 38.8502 129.215 38.8502H125.381V42.4641ZM125.381 36.9967H128.419C128.893 36.9967 129.3 36.929 129.638 36.7936C129.982 36.6581 130.245 36.4663 130.425 36.218C130.611 35.9641 130.704 35.6651 130.704 35.3209C130.704 34.8188 130.498 34.4266 130.087 34.1445C129.675 33.8624 129.11 33.7213 128.394 33.7213H125.381V36.9967Z" fill="#383944"/>
<path d="M113.641 44.8416C112.422 44.8416 111.359 44.5623 110.45 44.0038C109.542 43.4452 108.836 42.6637 108.334 41.6594C107.832 40.6551 107.581 39.4815 107.581 38.1386C107.581 36.7901 107.832 35.6108 108.334 34.6009C108.836 33.5909 109.542 32.8066 110.45 32.248C111.359 31.6894 112.422 31.4102 113.641 31.4102C114.86 31.4102 115.923 31.6894 116.832 32.248C117.74 32.8066 118.445 33.5909 118.947 34.6009C119.45 35.6108 119.701 36.7901 119.701 38.1386C119.701 39.4815 119.45 40.6551 118.947 41.6594C118.445 42.6637 117.74 43.4452 116.832 44.0038C115.923 44.5623 114.86 44.8416 113.641 44.8416ZM113.649 42.7173C114.439 42.7173 115.094 42.5085 115.613 42.091C116.132 41.6735 116.516 41.1177 116.764 40.4237C117.018 39.7297 117.145 38.9652 117.145 38.1301C117.145 37.3007 117.018 36.539 116.764 35.845C116.516 35.1454 116.132 34.5839 115.613 34.1608C115.094 33.7376 114.439 33.526 113.649 33.526C112.854 33.526 112.194 33.7376 111.669 34.1608C111.15 34.5839 110.763 35.1454 110.509 35.845C110.261 36.539 110.137 37.3007 110.137 38.1301C110.137 38.9652 110.261 39.7297 110.509 40.4237C110.763 41.1177 111.15 41.6735 111.669 42.091C112.194 42.5085 112.854 42.7173 113.649 42.7173Z" fill="#383944"/>
<path d="M92.9775 49.4542V31.5794H95.4489V33.6868H95.6604C95.8071 33.416 96.0187 33.1028 96.2952 32.7474C96.5717 32.3919 96.9554 32.0816 97.4462 31.8164C97.9371 31.5456 98.586 31.4102 99.3928 31.4102C100.442 31.4102 101.379 31.6753 102.203 32.2057C103.026 32.7361 103.672 33.5006 104.141 34.4993C104.615 35.498 104.852 36.6998 104.852 38.1047C104.852 39.5097 104.618 40.7143 104.149 41.7186C103.681 42.7173 103.038 43.4875 102.22 44.0291C101.401 44.5652 100.468 44.8332 99.4182 44.8332C98.6283 44.8332 97.9822 44.7006 97.4801 44.4354C96.9836 44.1702 96.5942 43.8599 96.3121 43.5044C96.03 43.149 95.8128 42.833 95.6604 42.5565H95.5081V49.4542H92.9775ZM95.4573 38.0793C95.4573 38.9934 95.5899 39.7946 95.8551 40.483C96.1203 41.1713 96.504 41.7102 97.0061 42.0995C97.5083 42.4832 98.1233 42.675 98.8512 42.675C99.6072 42.675 100.239 42.4747 100.747 42.0741C101.255 41.6678 101.638 41.1177 101.898 40.4237C102.163 39.7297 102.296 38.9483 102.296 38.0793C102.296 37.2217 102.166 36.4515 101.906 35.7688C101.653 35.0861 101.269 34.5473 100.755 34.1523C100.248 33.7574 99.6129 33.5599 98.8512 33.5599C98.1177 33.5599 97.497 33.7489 96.9892 34.1269C96.487 34.505 96.1062 35.0325 95.8466 35.7096C95.5871 36.3867 95.4573 37.1766 95.4573 38.0793Z" fill="#383944"/>
<path d="M80.6441 41.0337L86.3738 31.5801H89.0991V44.5799H86.6193V35.1178L80.9149 44.5799H78.1643V31.5801H80.6441V41.0337Z" fill="#383944"/>
<path d="M62.4902 44.5799L62.4817 42.3879H62.9472C63.3083 42.3879 63.6102 42.3117 63.8528 42.1594C64.101 42.0014 64.3042 41.7362 64.4621 41.3638C64.6201 40.9914 64.7414 40.478 64.8261 39.8235C64.9107 39.1633 64.9728 38.3339 65.0123 37.3352L65.2408 31.5801H74.3136V44.5799H71.8338V33.7636H67.5851L67.382 38.1816C67.3313 39.2536 67.2212 40.1902 67.052 40.9914C66.8883 41.7926 66.6485 42.4612 66.3326 42.9973C66.0166 43.5276 65.6103 43.9254 65.1138 44.1906C64.6173 44.4502 64.0136 44.5799 63.3026 44.5799H62.4902Z" fill="#383944"/>
<path d="M54.6504 44.8416C53.3696 44.8416 52.2665 44.568 51.3412 44.0207C50.4215 43.4677 49.7106 42.6919 49.2084 41.6932C48.7119 40.6889 48.4636 39.5125 48.4636 38.164C48.4636 36.8324 48.7119 35.6588 49.2084 34.6432C49.7106 33.6276 50.4102 32.8348 51.3073 32.265C52.2101 31.6951 53.2652 31.4102 54.4727 31.4102C55.2062 31.4102 55.9171 31.5315 56.6055 31.7741C57.2938 32.0167 57.9116 32.3976 58.4589 32.9167C59.0063 33.4357 59.4379 34.11 59.7539 34.9394C60.0698 35.7632 60.2278 36.7647 60.2278 37.9439V38.8411H49.8939V36.9452H57.748C57.748 36.2795 57.6126 35.6898 57.3418 35.1764C57.0709 34.6573 56.6901 34.2482 56.1992 33.9492C55.714 33.6501 55.1441 33.5006 54.4896 33.5006C53.7787 33.5006 53.158 33.6755 52.6276 34.0254C52.1029 34.3695 51.6967 34.8209 51.4089 35.3795C51.1268 35.9325 50.9857 36.5334 50.9857 37.1822V38.6633C50.9857 39.5322 51.1381 40.2714 51.4428 40.8807C51.7531 41.4901 52.1847 41.9556 52.7377 42.2772C53.2906 42.5932 53.9366 42.7512 54.6758 42.7512C55.1554 42.7512 55.5927 42.6835 55.9876 42.548C56.3826 42.407 56.7239 42.1982 57.0117 41.9218C57.2995 41.6453 57.5195 41.3039 57.6718 40.8977L60.067 41.3293C59.8752 42.0346 59.531 42.6524 59.0345 43.1828C58.5436 43.7075 57.9257 44.1166 57.181 44.41C56.4418 44.6978 55.5983 44.8416 54.6504 44.8416Z" fill="#383944"/>
<path d="M32.0581 48.3292V42.3879H33.116C33.3869 42.1396 33.6154 41.8434 33.8016 41.4992C33.9934 41.155 34.1542 40.746 34.284 40.272C34.4194 39.7981 34.5323 39.2451 34.6225 38.6132C34.7128 37.9756 34.7918 37.2478 34.8595 36.4296L35.2658 31.5801H44.1016V42.3879H46.099V48.3292H43.6276V44.5799H34.5633V48.3292H32.0581ZM35.8243 42.3879H41.6303V33.7467H37.534L37.2631 36.4296C37.1334 37.7951 36.9697 38.9799 36.7723 39.9843C36.5748 40.983 36.2588 41.7842 35.8243 42.3879Z" fill="#383944"/>
<path d="M23.967 44.8416C22.7483 44.8416 21.6847 44.5623 20.7763 44.0038C19.8679 43.4452 19.1626 42.6637 18.6605 41.6594C18.1583 40.6551 17.9072 39.4815 17.9072 38.1386C17.9072 36.7901 18.1583 35.6108 18.6605 34.6009C19.1626 33.5909 19.8679 32.8066 20.7763 32.248C21.6847 31.6894 22.7483 31.4102 23.967 31.4102C25.1858 31.4102 26.2494 31.6894 27.1578 32.248C28.0662 32.8066 28.7715 33.5909 29.2736 34.6009C29.7758 35.6108 30.0269 36.7901 30.0269 38.1386C30.0269 39.4815 29.7758 40.6551 29.2736 41.6594C28.7715 42.6637 28.0662 43.4452 27.1578 44.0038C26.2494 44.5623 25.1858 44.8416 23.967 44.8416ZM23.9755 42.7173C24.7654 42.7173 25.4199 42.5085 25.939 42.091C26.4581 41.6735 26.8418 41.1177 27.0901 40.4237C27.344 39.7297 27.4709 38.9652 27.4709 38.1301C27.4709 37.3007 27.344 36.539 27.0901 35.845C26.8418 35.1454 26.4581 34.5839 25.939 34.1608C25.4199 33.7376 24.7654 33.526 23.9755 33.526C23.1799 33.526 22.5198 33.7376 21.9951 34.1608C21.476 34.5839 21.0895 35.1454 20.8356 35.845C20.5873 36.539 20.4632 37.3007 20.4632 38.1301C20.4632 38.9652 20.5873 39.7297 20.8356 40.4237C21.0895 41.1177 21.476 41.6735 21.9951 42.091C22.5198 42.5085 23.1799 42.7173 23.9755 42.7173Z" fill="#383944"/>
<path d="M7.29549 41.4485L11.4934 31.5801H13.6769L8.23493 44.5799H6.35604L1.02408 31.5801H3.18226L7.29549 41.4485ZM2.47979 31.5801V44.5799H0V31.5801H2.47979ZM12.1789 44.5799V31.5801H14.6418V44.5799H12.1789Z" fill="#383944"/>
<path d="M185.405 17.8358C184.124 17.8358 183.021 17.5621 182.095 17.0148C181.176 16.4619 180.465 15.6861 179.963 14.6874C179.466 13.683 179.218 12.5066 179.218 11.1581C179.218 9.82654 179.466 8.65294 179.963 7.63733C180.465 6.62172 181.164 5.82898 182.062 5.2591C182.964 4.68923 184.019 4.4043 185.227 4.4043C185.96 4.4043 186.671 4.52561 187.36 4.76822C188.048 5.01084 188.666 5.3917 189.213 5.91079C189.76 6.42988 190.192 7.10413 190.508 7.93355C190.824 8.75733 190.982 9.75883 190.982 10.9381V11.8352H180.648V9.93939H188.502C188.502 9.2736 188.367 8.68398 188.096 8.17053C187.825 7.65144 187.444 7.24237 186.953 6.94333C186.468 6.64429 185.898 6.49477 185.244 6.49477C184.533 6.49477 183.912 6.66968 183.382 7.0195C182.857 7.36368 182.451 7.81506 182.163 8.37365C181.881 8.92659 181.74 9.5275 181.74 10.1764V11.6575C181.74 12.5264 181.892 13.2655 182.197 13.8749C182.507 14.4843 182.939 14.9497 183.492 15.2714C184.045 15.5873 184.691 15.7453 185.43 15.7453C185.91 15.7453 186.347 15.6776 186.742 15.5422C187.137 15.4011 187.478 15.1924 187.766 14.9159C188.054 14.6394 188.274 14.2981 188.426 13.8918L190.821 14.3234C190.629 15.0287 190.285 15.6466 189.789 16.1769C189.298 16.7017 188.68 17.1107 187.935 17.4041C187.196 17.6919 186.352 17.8358 185.405 17.8358Z" fill="#383944"/>
<path d="M170.442 17.8358C169.223 17.8358 168.159 17.5565 167.251 16.9979C166.343 16.4393 165.637 15.6579 165.135 14.6535C164.633 13.6492 164.382 12.4756 164.382 11.1327C164.382 9.78422 164.633 8.60498 165.135 7.59501C165.637 6.58504 166.343 5.80076 167.251 5.24218C168.159 4.68359 169.223 4.4043 170.442 4.4043C171.66 4.4043 172.724 4.68359 173.632 5.24218C174.541 5.80076 175.246 6.58504 175.748 7.59501C176.25 8.60498 176.501 9.78422 176.501 11.1327C176.501 12.4756 176.25 13.6492 175.748 14.6535C175.246 15.6579 174.541 16.4393 173.632 16.9979C172.724 17.5565 171.66 17.8358 170.442 17.8358ZM170.45 15.7115C171.24 15.7115 171.895 15.5027 172.414 15.0852C172.933 14.6676 173.316 14.1119 173.565 13.4179C173.819 12.7239 173.946 11.9593 173.946 11.1243C173.946 10.2949 173.819 9.53314 173.565 8.83914C173.316 8.1395 172.933 7.57809 172.414 7.15491C171.895 6.73174 171.24 6.52016 170.45 6.52016C169.655 6.52016 168.994 6.73174 168.47 7.15491C167.951 7.57809 167.564 8.1395 167.31 8.83914C167.062 9.53314 166.938 10.2949 166.938 11.1243C166.938 11.9593 167.062 12.7239 167.31 13.4179C167.564 14.1119 167.951 14.6676 168.47 15.0852C168.994 15.5027 169.655 15.7115 170.45 15.7115Z" fill="#383944"/>
<path d="M159.334 9.98138V12.1734H152.293V9.98138H159.334ZM153.004 4.57324V17.5731H150.524V4.57324H153.004ZM161.103 4.57324V17.5731H158.632V4.57324H161.103Z" fill="#383944"/>
<path d="M139.327 14.4416L143.524 4.57324H145.708L140.266 17.5731H138.387L133.055 4.57324H135.213L139.327 14.4416ZM134.511 4.57324V17.5731H132.031V4.57324H134.511ZM144.21 17.5731V4.57324H146.673V17.5731H144.21Z" fill="#383944"/>
<path d="M123.171 17.8358C121.89 17.8358 120.787 17.5621 119.861 17.0148C118.942 16.4619 118.231 15.6861 117.729 14.6874C117.232 13.683 116.984 12.5066 116.984 11.1581C116.984 9.82654 117.232 8.65294 117.729 7.63733C118.231 6.62172 118.93 5.82898 119.828 5.2591C120.73 4.68923 121.785 4.4043 122.993 4.4043C123.726 4.4043 124.437 4.52561 125.126 4.76822C125.814 5.01084 126.432 5.3917 126.979 5.91079C127.527 6.42988 127.958 7.10413 128.274 7.93355C128.59 8.75733 128.748 9.75883 128.748 10.9381V11.8352H118.414V9.93939H126.268C126.268 9.2736 126.133 8.68398 125.862 8.17053C125.591 7.65144 125.21 7.24237 124.719 6.94333C124.234 6.64429 123.664 6.49477 123.01 6.49477C122.299 6.49477 121.678 6.66968 121.148 7.0195C120.623 7.36368 120.217 7.81506 119.929 8.37365C119.647 8.92659 119.506 9.5275 119.506 10.1764V11.6575C119.506 12.5264 119.658 13.2655 119.963 13.8749C120.273 14.4843 120.705 14.9497 121.258 15.2714C121.811 15.5873 122.457 15.7453 123.196 15.7453C123.676 15.7453 124.113 15.6776 124.508 15.5422C124.903 15.4011 125.244 15.1924 125.532 14.9159C125.82 14.6394 126.04 14.2981 126.192 13.8918L128.587 14.3234C128.395 15.0287 128.051 15.6466 127.555 16.1769C127.064 16.7017 126.446 17.1107 125.701 17.4041C124.962 17.6919 124.119 17.8358 123.171 17.8358Z" fill="#383944"/>
<path d="M104.051 6.75681V4.57324H115.02V6.75681H110.779V17.5731H108.308V6.75681H104.051Z" fill="#383944"/>
<path d="M96.511 17.8358C95.2528 17.8358 94.1694 17.5508 93.261 16.981C92.3583 16.4055 91.6643 15.6127 91.179 14.6027C90.6938 13.5928 90.4512 12.4361 90.4512 11.1327C90.4512 9.81243 90.6994 8.6473 91.196 7.63733C91.6925 6.62172 92.3921 5.82898 93.2949 5.2591C94.1977 4.68923 95.2612 4.4043 96.4856 4.4043C97.473 4.4043 98.3532 4.58767 99.1262 4.95442C99.8992 5.31553 100.523 5.82333 100.997 6.47784C101.476 7.13235 101.761 7.89688 101.851 8.77143H99.3886C99.2531 8.16206 98.9428 7.63733 98.4576 7.19723C97.978 6.75713 97.3348 6.53708 96.5279 6.53708C95.8226 6.53708 95.2048 6.72328 94.6744 7.09567C94.1497 7.46242 93.7406 7.98715 93.4472 8.66987C93.1538 9.34695 93.0071 10.1482 93.0071 11.0735C93.0071 12.0214 93.151 12.8395 93.4388 13.5279C93.7265 14.2162 94.1328 14.7494 94.6575 15.1275C95.1879 15.5055 95.8114 15.6945 96.5279 15.6945C97.0075 15.6945 97.442 15.6071 97.8313 15.4322C98.2263 15.2516 98.5563 14.9949 98.8215 14.662C99.0923 14.3291 99.2814 13.9285 99.3886 13.4602H101.851C101.761 14.3009 101.487 15.0513 101.03 15.7115C100.573 16.3716 99.9613 16.8907 99.1939 17.2687C98.4322 17.6468 97.5379 17.8358 96.511 17.8358Z" fill="#383944"/>
<path d="M78.7017 14.0269L84.4315 4.57324H87.1567V17.5731H84.6769V8.11096L78.9725 17.5731H76.2219V4.57324H78.7017V14.0269Z" fill="#383944"/>
<path d="M72.8196 5.87363H70.1791C70.0775 5.3094 69.8885 4.81288 69.612 4.38406C69.3355 3.95525 68.997 3.59132 68.5964 3.29228C68.1958 2.99324 67.7472 2.76754 67.2507 2.6152C66.7598 2.46286 66.2379 2.38669 65.685 2.38669C64.6863 2.38669 63.792 2.63777 63.0021 3.13994C62.2178 3.6421 61.5971 4.37842 61.1401 5.34889C60.6887 6.31937 60.463 7.50425 60.463 8.90354C60.463 10.3141 60.6887 11.5046 61.1401 12.4751C61.5971 13.4456 62.2206 14.1791 63.0105 14.6756C63.8004 15.1721 64.6891 15.4204 65.6765 15.4204C66.2238 15.4204 66.7429 15.347 67.2338 15.2003C67.7303 15.048 68.1789 14.8251 68.5795 14.5317C68.9801 14.2383 69.3186 13.88 69.5951 13.4569C69.8772 13.0281 70.0719 12.5372 70.1791 11.9842L72.8196 11.9927C72.6786 12.8447 72.4049 13.629 71.9987 14.3455C71.5981 15.0565 71.0818 15.6715 70.4499 16.1906C69.8236 16.704 69.107 17.1018 68.3002 17.3839C67.4933 17.666 66.6131 17.8071 65.6596 17.8071C64.1587 17.8071 62.8215 17.4516 61.6479 16.7407C60.4743 16.0241 59.549 15 58.8719 13.6685C58.2005 12.3369 57.8647 10.7486 57.8647 8.90354C57.8647 7.05287 58.2033 5.46456 58.8804 4.13862C59.5574 2.80704 60.4828 1.78579 61.6564 1.07486C62.83 0.358286 64.1644 0 65.6596 0C66.5793 0 67.4369 0.132594 68.2325 0.397782C69.0337 0.657327 69.7531 1.041 70.3906 1.54881C71.0282 2.05097 71.5558 2.66598 71.9733 3.39384C72.3908 4.11605 72.6729 4.94265 72.8196 5.87363Z" fill="#383944"/>
<circle cx="222.731" cy="38.9247" r="14.3807" fill="#383944"/>
<line x1="222.84" y1="52.377" x2="222.84" y2="155.361" stroke="#383944" stroke-width="3"/>
<path d="M222.268 183.196L205.394 153.971H239.141L222.268 183.196Z" fill="#383944"/>
<circle cx="248.758" cy="142.119" r="14.3807" transform="rotate(-145 248.758 142.119)" fill="#383944"/>
<line x1="254.437" y1="132.233" x2="294.492" y2="74.8177" stroke="#383944" stroke-width="3"/>
<path d="M311.317 49.258L308.65 84.3456L280.348 65.9659L311.317 49.258Z" fill="#383944"/>
<circle cx="322.005" cy="38.9247" r="14.3807" fill="#383944"/>
<line x1="322.113" y1="52.377" x2="322.113" y2="155.361" stroke="#383944" stroke-width="3"/>
<path d="M321.54 183.196L304.667 153.971H338.414L321.54 183.196Z" fill="#383944"/>
<path d="M103.677 61.4512H138.269L151.618 113.222L164.909 61.4512H199.384V146.536H177.909V81.6488L161.252 146.536H141.809L125.21 81.6488V146.536H103.677V61.4512Z" fill="#383944"/>
<path d="M65.7222 111.771L88.7636 118.735C87.2159 125.197 84.7783 130.595 81.4507 134.928C78.1232 139.262 73.983 142.532 69.0304 144.737C64.1164 146.942 57.8482 148.045 50.2257 148.045C40.9782 148.045 33.4138 146.71 27.5325 144.041C21.6899 141.332 16.6405 136.592 12.3843 129.821C8.1281 123.05 6 114.383 6 103.819C6 89.7353 9.73384 78.9207 17.2015 71.3756C24.7079 63.7919 35.3097 60 49.0069 60C59.7248 60 68.1404 62.1668 74.2539 66.5004C80.406 70.834 84.9718 77.4891 87.9511 86.4658L64.7355 91.6313C63.9229 89.0389 63.0717 87.1429 62.1818 85.9434C60.7115 83.9314 58.9122 82.3837 56.7841 81.3003C54.656 80.2169 52.2764 79.6752 49.6453 79.6752C43.6867 79.6752 39.1209 82.0742 35.9481 86.8721C33.5492 90.4318 32.3497 96.0229 32.3497 103.645C32.3497 113.086 33.7813 119.567 36.6446 123.088C39.5079 126.571 43.5319 128.312 48.7167 128.312C53.7468 128.312 57.5387 126.9 60.0924 124.075C62.6848 121.251 64.5614 117.149 65.7222 111.771Z" fill="#383944"/>
<path d="M524.969 147.085H498.735V82.8941H469.832V147.085H443.598V62H524.969V147.085Z" fill="#383944"/>
<path d="M400.941 133.04H370.993L366.873 147.085H340L371.98 62H400.651L432.631 147.085H405.12L400.941 133.04ZM395.428 114.641L386.025 84.0548L376.681 114.641H395.428Z" fill="#383944"/>
</svg>
