<svg width="40" height="40" viewBox="0 0 40 40" fill="none" xmlns="http://www.w3.org/2000/svg">
<path d="M36.2857 6H3.71429C2.99441 6 2.30402 6.295 1.795 6.8201C1.28597 7.3452 1 8.05739 1 8.8V31.2C1 31.9426 1.28597 32.6548 1.795 33.1799C2.30402 33.705 2.99441 34 3.71429 34H36.2857C37.0056 34 37.696 33.705 38.205 33.1799C38.714 32.6548 39 31.9426 39 31.2V8.8C39 8.05739 38.714 7.3452 38.205 6.8201C37.696 6.295 37.0056 6 36.2857 6ZM33.3 8.8L20 18.292L6.7 8.8H33.3ZM3.71429 31.2V10.074L19.2264 21.148C19.4536 21.3106 19.7235 21.3977 20 21.3977C20.2765 21.3977 20.5464 21.3106 20.7736 21.148L36.2857 10.074V31.2H3.71429Z" fill="#4A7BF7"/>
</svg>
