<svg width="40" height="40" viewBox="0 0 40 40" fill="none" xmlns="http://www.w3.org/2000/svg">
<path fill-rule="evenodd" clip-rule="evenodd" d="M19.9974 3.33398C15.3951 3.33398 11.6641 7.06494 11.6641 11.6673C11.6641 15.8063 14.6816 19.2406 18.6368 19.8901V20.068C13.3072 20.5977 8.82995 24.2059 7.11149 29.1673C6.4595 31.0495 6.29304 33.0785 6.12908 35.0772L6.12869 35.0818C6.08507 35.6136 6.04161 36.1432 5.98926 36.6673H9.33917C9.38419 36.2175 9.42148 35.7606 9.4589 35.3019L9.46104 35.2757C9.63123 33.1893 9.80599 31.0479 10.7119 29.1673C12.3856 25.6925 15.9384 23.334 19.9975 23.334C24.0566 23.334 27.6092 25.6925 29.283 29.1673C30.1889 31.0479 30.3636 33.1904 30.5338 35.2768L30.5347 35.2893C30.5726 35.7525 30.6102 36.213 30.6557 36.6673H34.0057C33.9533 36.143 33.9098 35.6132 33.8662 35.0813L33.8658 35.077V35.0752L33.8655 35.0709C33.7013 33.0743 33.5347 31.0475 32.8835 29.1673C31.165 24.2058 26.6877 20.5976 21.3581 20.0679V19.8901C25.3133 19.2406 28.3308 15.8063 28.3308 11.6673C28.3308 7.06494 24.5998 3.33398 19.9974 3.33398ZM14.9974 11.6673C14.9974 8.90589 17.236 6.66732 19.9974 6.66732C22.7589 6.66732 24.9974 8.90589 24.9974 11.6673C24.9974 14.4287 22.7589 16.6673 19.9974 16.6673C17.236 16.6673 14.9974 14.4287 14.9974 11.6673Z" fill="#4A7BF7"/>
</svg>
