<svg width="40" height="40" viewBox="0 0 40 40" fill="none" xmlns="http://www.w3.org/2000/svg">
<rect width="40" height="40" rx="20" fill="white"/>
<path d="M21 27.9C21 26.8 20.5 26.3 19.6 26.1V26H27C28.6 26 30 24.7 30 23V13C30 11.3 28.6 10 27 10H13C11.3 10 10 11.3 10 13V23C10 24.7 11.3 26 13 26H19V28H16V30H24V28H21V27.9ZM20 22.5C20.8 22.5 21.5 21.8 21.5 21C21.5 20.2 20.8 19.5 20 19.5C19.2 19.5 18.5 20.2 18.5 21C18.5 21.8 19.2 22.5 20 22.5ZM13 24C12.4 24 12 23.6 12 23V13C12 12.5 12.4 12 13 12H27C27.5 12 28 12.5 28 13V23C28 23.6 27.5 24 27 24H13Z" fill="#4A7BF7"/>
</svg>
