<svg width="40" height="40" viewBox="0 0 40 40" fill="none" xmlns="http://www.w3.org/2000/svg">
<rect width="40" height="40" rx="20" fill="white"/>
<path d="M21.22 22.91V22.77C22.55 22.27 23.5 21 23.5 19.5C23.5 17.57 21.93 16 20 16C18.07 16 16.5 17.57 16.5 19.5C16.5 21 17.45 22.27 18.78 22.77V22.91C15.4 23.51 13.5 26.57 13.5 29.8H15.5C15.5 27 17.23 24.8 20 24.8C22.77 24.8 24.5 27 24.5 29.8H26.5C26.5 26.57 24.6 23.51 21.22 22.91ZM20 18C20.83 18 21.5 18.67 21.5 19.5C21.5 20.33 20.83 21 20 21C19.17 21 18.5 20.33 18.5 19.5C18.5 18.67 19.17 18 20 18Z" fill="#4A7BF7"/>
<path d="M15 19.8V17.65C16.18 17.09 17 15.89 17 14.5C17 12.57 15.43 11 13.5 11C11.57 11 10 12.57 10 14.5C10 16.16 11.16 17.54 12.71 17.9V18.04C9.68 18.87 8 21.76 8 24.8H10C10 22 11.73 19.8 14.5 19.8H15ZM12 14.5C12 13.67 12.67 13 13.5 13C14.33 13 15 13.67 15 14.5C15 15.33 14.33 16 13.5 16C12.67 16 12 15.33 12 14.5Z" fill="#4A7BF7"/>
<path d="M27.29 18.04V17.9C28.84 17.54 30 16.16 30 14.5C30 12.57 28.43 11 26.5 11C24.57 11 23 12.57 23 14.5C23 15.89 23.82 17.09 25 17.65V19.8H25.5C28.27 19.8 30 22 30 24.8H32C32 21.76 30.32 18.87 27.29 18.04ZM26.5 13C27.33 13 28 13.67 28 14.5C28 15.33 27.33 16 26.5 16C25.67 16 25 15.33 25 14.5C25 13.67 25.67 13 26.5 13Z" fill="#4A7BF7"/>
</svg>
